<svg width="1024" height="1024" viewBox="0 0 1024 1024" fill="none" xmlns="http://www.w3.org/2000/svg">
<path d="M0 180.044C0 80.6084 80.6084 0 180.044 0H843.956C943.392 0 1024 80.6084 1024 180.044V843.956C1024 943.392 943.392 1024 843.956 1024H180.044C80.6084 1024 0 943.392 0 843.956V180.044Z" fill="#EDF6FF"/>
<path d="M213.802 235.956L224.351 146.286H469.626C554.373 146.286 616.264 151.385 655.297 161.582C693.626 172.132 721.055 184.615 737.582 199.033C774.505 230.681 792.967 279.385 792.967 345.143C792.967 394.022 766.593 440.44 713.846 484.396C781.011 518.154 814.593 581.099 814.593 673.231C814.593 745.319 790.857 798.945 743.384 834.11C696.264 868.923 625.934 888.088 532.395 891.604H224.351L213.802 801.934C223.297 789.626 243.165 777.67 273.406 766.066V272.352C243.516 261.802 223.648 249.67 213.802 235.956ZM484.923 263.912H429.011V450.637H517.099C554.022 450.637 582.154 441.319 601.494 422.681C621.187 404.044 631.033 381.187 631.033 354.11C631.033 327.033 624.176 306.637 610.461 292.923C596.747 279.209 580.747 270.945 562.461 268.132C544.527 265.319 518.681 263.912 484.923 263.912ZM525.011 568.791H429.011V773.978H503.384C552.264 773.978 589.187 766.769 614.154 752.352C639.472 737.582 652.132 711.56 652.132 674.286C652.132 636.659 642.286 609.758 622.593 593.582C602.901 577.055 570.373 568.791 525.011 568.791Z" fill="#006ADC"/>
</svg>
